<?xml version="1.0" encoding="utf-8"?>
<!-- Generator: Adobe Illustrator 16.0.0, SVG Export Plug-In . SVG Version: 6.00 Build 0)  -->
<!DOCTYPE svg PUBLIC "-//W3C//DTD SVG 1.1//EN" "http://www.w3.org/Graphics/SVG/1.1/DTD/svg11.dtd">
<svg version="1.1" id="Layer_1" xmlns="http://www.w3.org/2000/svg" xmlns:xlink="http://www.w3.org/1999/xlink" x="0px" y="0px"
	 width="115px" height="30px" viewBox="0 0 115 30" enable-background="new 0 0 115 30" xml:space="preserve">
<g>
	<g>
		<path fill="#FDBB11" d="M20.422,5.805c1.876,1.066,3.354,2.544,4.43,4.432l-3.749,2.645C19.387,10.163,17.069,8.8,14.154,8.8
			c-2.281,0-4.158,0.749-5.627,2.244c-1.469,1.495-2.204,3.419-2.204,5.773c0,2.328,0.734,4.233,2.204,5.718
			c1.47,1.485,3.347,2.225,5.627,2.225c2.915,0,5.233-1.359,6.949-4.08l3.749,2.647c-1.053,1.885-2.522,3.363-4.412,4.428
			c-1.887,1.068-3.993,1.599-6.325,1.599c-3.626,0-6.686-1.204-9.174-3.62c-2.486-2.414-3.732-5.399-3.732-8.952
			c0-3.558,1.252-6.541,3.751-8.956c2.5-2.415,5.566-3.621,9.194-3.62C16.458,4.206,18.549,4.738,20.422,5.805z"/>
	</g>
	<g>
		<path fill="#FDBB11" d="M42.297,13.049c1.913,1.825,2.868,4.076,2.868,6.747c0,2.673-0.955,4.928-2.868,6.767
			c-1.913,1.836-4.229,2.758-6.951,2.758c-2.722,0-5.017-0.915-6.894-2.741c-1.875-1.825-2.812-4.088-2.812-6.783
			c0-2.67,0.943-4.921,2.829-6.747c1.89-1.826,4.194-2.74,6.912-2.74C38.079,10.309,40.384,11.223,42.297,13.049z M31.999,16.247
			c-0.883,0.945-1.324,2.141-1.324,3.586c0,1.446,0.44,2.631,1.324,3.548c0.883,0.918,2.012,1.379,3.381,1.379
			c1.351,0,2.471-0.467,3.366-1.396c0.895-0.934,1.343-2.108,1.343-3.532c0-1.421-0.448-2.61-1.343-3.566s-2.015-1.437-3.366-1.437
			C34.011,14.83,32.882,15.304,31.999,16.247z"/>
	</g>
	<g>
		<path fill="#FDBB11" d="M51.701,28.914h-4.963V1.337h4.963V28.914z"/>
	</g>
	<g>
		<path fill="#FDBB11" d="M58.491,1.888c0.624,0.589,0.937,1.325,0.937,2.207c0,0.858-0.313,1.581-0.937,2.17
			c-0.626,0.589-1.381,0.882-2.262,0.882c-0.881,0-1.631-0.293-2.245-0.882c-0.613-0.589-0.916-1.312-0.916-2.17
			c0-0.882,0.303-1.618,0.916-2.207c0.614-0.587,1.364-0.881,2.245-0.881C57.11,1.007,57.864,1.3,58.491,1.888z M58.729,28.914
			h-4.964V10.712h4.964V28.914z"/>
	</g>
	<g>
		<path fill="#FDBB11" d="M75.686,12.312c1.223,1.335,1.838,3.108,1.838,5.315v11.287h-4.93V18.288c0-1.052-0.31-1.904-0.937-2.554
			c-0.624-0.653-1.439-0.975-2.444-0.975c-1.006,0-1.834,0.322-2.484,0.975c-0.648,0.65-0.974,1.502-0.974,2.554v10.626h-4.961
			V10.712h4.556v1.656c1.373-1.371,3.152-2.06,5.333-2.06C72.792,10.309,74.458,10.977,75.686,12.312z"/>
	</g>
</g>
<g opacity="0.2">
	<path fill="#333333" d="M88.523,22.019c0.734,0.789,1.103,1.772,1.103,2.954c0,1.178-0.366,2.161-1.094,2.942
		c-0.731,0.784-1.652,1.176-2.77,1.176c-0.576,0-1.111-0.112-1.6-0.338c-0.487-0.225-0.878-0.541-1.168-0.949v1.109h-1.576V16.845
		h1.691v5.134c0.622-0.762,1.501-1.143,2.639-1.143C86.863,20.835,87.789,21.23,88.523,22.019z M87.196,26.822
		c0.461-0.482,0.691-1.105,0.691-1.866c0-0.751-0.23-1.369-0.691-1.851c-0.462-0.483-1.034-0.726-1.723-0.726
		c-0.654,0-1.215,0.224-1.681,0.669c-0.468,0.445-0.7,1.086-0.7,1.924c0,0.846,0.232,1.487,0.7,1.921
		c0.466,0.434,1.026,0.653,1.681,0.653C86.162,27.547,86.734,27.307,87.196,26.822z"/>
	<path fill="#333333" d="M97.962,25.52h-5.889c0.108,0.655,0.392,1.164,0.853,1.528c0.461,0.363,1.034,0.547,1.724,0.547
		c0.824,0,1.59-0.311,2.3-0.934l0.804,1.158c-0.901,0.85-1.953,1.271-3.154,1.271c-1.222,0-2.237-0.395-3.04-1.183
		c-0.806-0.789-1.208-1.767-1.208-2.936c0-1.159,0.394-2.139,1.182-2.938c0.79-0.799,1.759-1.199,2.905-1.199
		c1.052,0,1.923,0.344,2.616,1.03c0.69,0.687,1.038,1.55,1.038,2.591C98.092,24.788,98.048,25.144,97.962,25.52z M92.918,22.792
		c-0.414,0.349-0.685,0.818-0.813,1.407H96.4c-0.01-0.589-0.208-1.059-0.596-1.407c-0.386-0.35-0.862-0.524-1.432-0.524
		C93.815,22.268,93.329,22.442,92.918,22.792z"/>
	<path fill="#333333" d="M104.32,27.482v1.431c-0.538,0.117-1.003,0.178-1.4,0.178c-0.912,0-1.625-0.228-2.139-0.682
		c-0.517-0.459-0.775-1.148-0.775-2.069v-3.861h-1.287v-1.465h1.287v-2.076h1.707v2.076h2.349v1.465h-2.349v3.716
		c0,0.503,0.131,0.858,0.393,1.062c0.265,0.203,0.653,0.305,1.167,0.305C103.51,27.562,103.858,27.536,104.32,27.482z"/>
	<path fill="#333333" d="M111.015,21.688c0.59,0.569,0.885,1.385,0.885,2.446v4.779h-1.578v-0.886
		c-0.59,0.709-1.432,1.062-2.525,1.062c-0.826,0-1.491-0.209-1.997-0.629c-0.503-0.416-0.755-0.971-0.755-1.655
		c0-0.687,0.263-1.234,0.788-1.643c0.526-0.407,1.235-0.609,2.124-0.609h2.237v-0.518c0-0.547-0.149-0.964-0.442-1.254
		c-0.294-0.291-0.711-0.436-1.248-0.436c-0.794,0-1.523,0.393-2.188,1.176l-0.979-0.998c0.794-1.126,1.902-1.69,3.329-1.69
		C109.64,20.835,110.424,21.119,111.015,21.688z M109.599,27.257c0.396-0.354,0.595-0.801,0.595-1.336v-0.145h-2.027
		c-0.933,0-1.4,0.321-1.4,0.967c0,0.333,0.128,0.588,0.387,0.771c0.258,0.184,0.591,0.274,0.998,0.274
		C108.72,27.788,109.202,27.61,109.599,27.257z"/>
</g>
</svg>
