<?xml version="1.0" encoding="utf-8"?>
<!-- Generator: Adobe Illustrator 16.0.0, SVG Export Plug-In . SVG Version: 6.00 Build 0)  -->
<!DOCTYPE svg PUBLIC "-//W3C//DTD SVG 1.1//EN" "http://www.w3.org/Graphics/SVG/1.1/DTD/svg11.dtd">
<svg version="1.1" id="Layer_1" xmlns="http://www.w3.org/2000/svg" xmlns:xlink="http://www.w3.org/1999/xlink" x="0px" y="0px"
	 width="72.843px" height="72.848px" viewBox="0 0 72.843 72.848" enable-background="new 0 0 72.843 72.848" xml:space="preserve">
<circle fill="#FFFFFF" cx="34.535" cy="34.109" r="18.802"/>
<g>
	<path fill="#FCBB17" d="M41.003,23.657c1.81,1.031,3.238,2.459,4.28,4.282l-3.625,2.556c-1.657-2.626-3.896-3.943-6.712-3.943
		c-2.204,0-4.018,0.725-5.438,2.168c-1.421,1.445-2.13,3.303-2.13,5.579c0,2.249,0.709,4.088,2.13,5.523
		c1.42,1.434,3.233,2.149,5.438,2.149c2.816,0,5.055-1.312,6.712-3.941l3.625,2.558c-1.021,1.82-2.438,3.248-4.265,4.279
		c-1.822,1.031-3.858,1.544-6.111,1.544c-3.503,0-6.459-1.166-8.864-3.499c-2.401-2.332-3.604-5.215-3.604-8.648
		c0-3.438,1.209-6.319,3.623-8.653c2.416-2.333,5.378-3.498,8.885-3.497C37.172,22.113,39.19,22.626,41.003,23.657z"/>
	<path fill="#333333" d="M59.661,56.378l-8.07-8.064c6.986-8.63,6.463-21.353-1.551-29.375c-4.159-4.149-9.679-6.438-15.556-6.438
		c-5.872,0-11.398,2.289-15.551,6.438c-8.579,8.578-8.579,22.529,0,31.104c4.153,4.156,9.681,6.441,15.551,6.441
		c5.085,0,9.915-1.724,13.825-4.884l8.062,8.067c0.451,0.453,1.047,0.68,1.638,0.68c0.597,0,1.195-0.227,1.651-0.68
		C60.571,58.761,60.571,57.285,59.661,56.378z M22.223,46.755c-6.759-6.761-6.759-17.762,0-24.521
		c3.277-3.278,7.631-5.08,12.261-5.08c4.635,0,8.987,1.802,12.266,5.08c6.754,6.759,6.754,17.76,0,24.521
		c-3.278,3.275-7.631,5.078-12.266,5.078C29.854,51.833,25.5,50.03,22.223,46.755z"/>
</g>
</svg>
