<?xml version="1.0" encoding="utf-8"?>
<!-- Generator: Adobe Illustrator 16.0.0, SVG Export Plug-In . SVG Version: 6.00 Build 0)  -->
<!DOCTYPE svg PUBLIC "-//W3C//DTD SVG 1.1//EN" "http://www.w3.org/Graphics/SVG/1.1/DTD/svg11.dtd">
<svg version="1.1" id="Layer_1" xmlns="http://www.w3.org/2000/svg" xmlns:xlink="http://www.w3.org/1999/xlink" x="0px" y="0px"
	 width="200px" height="200px" viewBox="0 0 200 200" enable-background="new 0 0 200 200" xml:space="preserve">
<g>
	<g>
		<path fill="#FCBB17" d="M118.065,62.967c4.866,2.77,8.706,6.609,11.508,11.512l-9.742,6.871
			c-4.459-7.062-10.475-10.601-18.048-10.601c-5.924,0-10.799,1.946-14.616,5.828c-3.819,3.885-5.724,8.88-5.724,14.997
			c0,6.046,1.905,10.992,5.724,14.85c3.817,3.852,8.692,5.777,14.616,5.777c7.573,0,13.589-3.527,18.048-10.596l9.742,6.877
			c-2.743,4.893-6.555,8.73-11.464,11.502c-4.898,2.771-10.374,4.15-16.428,4.15c-9.42,0-17.364-3.135-23.831-9.408
			c-6.456-6.271-9.69-14.02-9.69-23.246c0-9.243,3.25-16.988,9.741-23.264c6.494-6.27,14.458-9.402,23.882-9.399
			C107.768,58.817,113.196,60.195,118.065,62.967z"/>
	</g>
	<path fill="#333333" d="M171.863,177.42c-0.639,0-1.236-0.234-1.697-0.664c-3.098-4.57-13.217-16.031-21.17-24.85l-1.639-1.818
		l-2.109,1.24c-2.82,1.66-5.938,3.209-9.266,4.604c-10.949,4.592-23.352,7.121-34.924,7.121c-1.565,0-3.122-0.047-4.625-0.143
		c-17.987-1.129-35.637-9.506-48.422-22.986c-13.307-14.025-20.224-32.01-19.479-50.634c0.758-18.91,8.834-36.393,22.738-49.227
		c13.127-12.116,30.164-18.789,47.976-18.789c0.967,0,1.939,0.02,2.91,0.059c39.035,1.563,69.521,34.591,67.959,73.625l-0.012,0.161
		c-0.324,3.316-1.23,9.93-2.555,13.57c-0.359,0.986-1.303,1.646-2.35,1.646c-0.289,0-0.576-0.051-0.852-0.15
		c-0.629-0.229-1.131-0.688-1.412-1.293c-0.283-0.605-0.312-1.283-0.084-1.91c1.125-3.096,1.973-9.335,2.262-12.201l0.014-0.19
		c1.359-36.191-26.979-66.814-63.168-68.263c-0.902-0.036-1.803-0.054-2.702-0.054c-16.557,0-32.396,6.202-44.596,17.463
		c-12.925,11.931-20.43,28.18-21.133,45.754c-0.691,17.265,5.739,33.956,18.108,46.995c11.926,12.572,28.368,20.387,45.11,21.438
		c1.426,0.09,2.898,0.135,4.377,0.135c10.881,0,22.574-2.393,32.926-6.734c2.309-0.969,4.531-2.029,6.604-3.152l3.342-1.811
		l-2.537-2.83c-4.502-5.018-6.611-10.459-6.104-15.736c0.578-8.012,6.518-14.232,13.525-14.232c0.262,0,0.523,0.01,0.779,0.025
		c1.541,0.053,2.926,0.404,4.207,1.051l0.092,0.045c3.961,1.826,6.969,5.715,8.047,10.404l0.033,0.131
		c0.713,2.557,0.68,5.234-0.094,7.957c-0.557,2.205-1.471,4.137-2.738,5.826l-0.092,0.129c-1.393,2.08-3.203,4.125-5.379,6.08
		l-2.236,2.008l2.014,2.232c17.08,18.932,19.502,22.777,19.721,23.154l0.176,0.301l0.27,0.299c0.943,0.996,0.902,2.582-0.098,3.529
		C173.115,177.176,172.504,177.42,171.863,177.42z M139.945,127.123c-0.239,1.581-0.626,7.755,6.33,14.026l1.85,1.667l1.979-1.511
		c7.447-5.681,7.565-11.866,7.457-13.461c0.115-5.207-3.628-9.566-8.425-9.763C144.342,117.887,140.256,121.927,139.945,127.123z"/>
</g>
</svg>
