<?xml version="1.0" encoding="utf-8"?>
<!-- Generator: Adobe Illustrator 16.0.0, SVG Export Plug-In . SVG Version: 6.00 Build 0)  -->
<!DOCTYPE svg PUBLIC "-//W3C//DTD SVG 1.1//EN" "http://www.w3.org/Graphics/SVG/1.1/DTD/svg11.dtd">
<svg version="1.1" id="Layer_1" xmlns="http://www.w3.org/2000/svg" xmlns:xlink="http://www.w3.org/1999/xlink" x="0px" y="0px"
	 width="104.667px" height="41.332px" viewBox="0 0 104.667 41.332" enable-background="new 0 0 104.667 41.332"
	 xml:space="preserve">
<g>
	<path fill="#FEBC12" d="M28.945,9.09c2.316,1.316,4.14,3.142,5.47,5.472l-4.63,3.267c-2.119-3.357-4.98-5.04-8.58-5.04
		c-2.815,0-5.133,0.925-6.947,2.771c-1.815,1.847-2.721,4.223-2.721,7.129c0,2.874,0.905,5.227,2.721,7.059
		c1.814,1.834,4.132,2.748,6.947,2.748c3.6,0,6.461-1.68,8.58-5.038l4.63,3.268c-1.302,2.328-3.115,4.152-5.448,5.469
		c-2.33,1.318-4.931,1.974-7.81,1.974c-4.477,0-8.254-1.487-11.328-4.472C6.76,30.715,5.222,27.03,5.222,22.643
		c0-4.393,1.545-8.075,4.63-11.058c3.088-2.98,6.874-4.471,11.353-4.469C24.049,7.116,26.63,7.772,28.945,9.09z"/>
	<path fill="#FEBC12" d="M55.953,18.034c2.361,2.254,3.541,5.033,3.541,8.33c0,3.3-1.18,6.084-3.541,8.354
		c-2.361,2.267-5.221,3.404-8.583,3.404c-3.359,0-6.194-1.129-8.511-3.383c-2.314-2.255-3.472-5.047-3.472-8.376
		c0-3.297,1.165-6.076,3.493-8.33c2.333-2.255,5.178-3.383,8.534-3.383C50.745,14.651,53.591,15.779,55.953,18.034z M43.238,21.982
		c-1.091,1.166-1.635,2.642-1.635,4.428c0,1.784,0.544,3.247,1.635,4.379c1.09,1.136,2.484,1.705,4.175,1.705
		c1.668,0,3.05-0.576,4.155-1.726c1.105-1.151,1.658-2.603,1.658-4.358c0-1.755-0.553-3.224-1.658-4.403
		c-1.104-1.181-2.487-1.773-4.155-1.773C45.722,20.233,44.329,20.818,43.238,21.982z"/>
	<path fill="#FEBC12" d="M67.564,37.622h-6.129V3.573h6.129V37.622z"/>
	<path fill="#FEBC12" d="M75.947,4.254c0.77,0.727,1.156,1.636,1.156,2.724c0,1.06-0.387,1.952-1.156,2.68
		c-0.773,0.728-1.705,1.089-2.793,1.089s-2.014-0.361-2.771-1.089c-0.756-0.728-1.131-1.62-1.131-2.68
		c0-1.088,0.375-1.997,1.131-2.724c0.758-0.726,1.684-1.088,2.771-1.088S75.173,3.528,75.947,4.254z M76.242,37.622h-6.129V15.149
		h6.129V37.622z"/>
	<path fill="#FEBC12" d="M97.175,17.125c1.512,1.648,2.27,3.836,2.27,6.562v13.936h-6.084v-13.12c0-1.299-0.385-2.351-1.158-3.153
		c-0.77-0.805-1.777-1.203-3.018-1.203c-1.242,0-2.264,0.398-3.066,1.203c-0.801,0.803-1.203,1.854-1.203,3.153v13.12h-6.125V15.149
		h5.625v2.045c1.695-1.693,3.893-2.543,6.584-2.543C93.605,14.651,95.662,15.476,97.175,17.125z"/>
</g>
</svg>
